<?xml version="1.0" standalone="no"?>
<svg xmlns="http://www.w3.org/2000/svg" viewBox="0 0 144.12 29" width="144.12" height="29"><g fill="#3a3a3a" color="#3a3a3a" transform="translate(0, 0) scale(0.5576924)"><svg width="52.0" height="52.0" x="0.0" y="0.0" viewBox="0 0 52 52"><path fill="currentColor" fill-rule="evenodd" d="M18.22 33.35s9.278 9.366 25.673 11.515a26.024 26.024 0 0 1-4.652 3.512l-.054.034a25.875 25.875 0 0 1-13.82 3.58 26.054 26.054 0 0 1-4.701-.545c-.167-.035-.333-.078-.5-.116-2.487-6.099-2.5-12.173-2.247-15.465.12-1.574.301-2.515.301-2.515zM15.745 22.9S12.273 35.616 18.61 50.89a26.12 26.12 0 0 1-5.368-2.273l-.055-.03A25.865 25.865 0 0 1 3.175 38.408a26.147 26.147 0 0 1-1.878-4.343c-.054-.163-.099-.328-.15-.492 4.038-5.202 9.293-8.25 12.27-9.678 1.423-.683 2.328-.997 2.328-.997zm35.536-2.96c.445 1.86.695 3.795.716 5.786l.002.064a25.868 25.868 0 0 1-3.81 13.76 26.134 26.134 0 0 1-2.821 3.797c-.115.127-.235.249-.352.374-6.524-.895-11.79-3.921-14.516-5.786-1.302-.892-2.026-1.517-2.026-1.517S41.223 33.065 51.28 19.94zM6.983 8.25c6.525.895 11.792 3.922 14.517 5.786 1.302.89 2.026 1.517 2.026 1.517S10.778 18.904.718 32.028a26.047 26.047 0 0 1-.715-5.784L0 26.181A25.871 25.871 0 0 1 3.81 12.42a26.18 26.18 0 0 1 2.822-3.797c.114-.128.235-.25.351-.375zM33.39 1.07a26.021 26.021 0 0 1 5.368 2.272l.055.03a25.864 25.864 0 0 1 10.012 10.18 25.98 25.98 0 0 1 1.878 4.342c.053.163.098.327.149.492-4.038 5.203-9.292 8.25-12.27 9.678-1.422.682-2.327.997-2.327.997s3.471-12.719-2.865-27.991zM26.134 0l.503.007c1.582.04 3.157.221 4.7.545.167.036.333.079.5.117 2.487 6.098 2.499 12.172 2.247 15.465-.12 1.573-.301 2.515-.301 2.515S24.506 9.283 8.11 7.135a26.1 26.1 0 0 1 4.651-3.513c.019-.01.036-.023.055-.033A25.877 25.877 0 0 1 26.637.009z"></path></svg></g><line x1="41" y1="1" x2="41" y2="28" stroke="#3a3a3a" stroke-linecap="round"></line><path fill="#3a3a3a" fill-rule="nonzero" d="M7.18 20.62L3.29 20.62L3.29 13.82L0 0L4.08 0L5.23 6.98L6.38 0L10.46 0L7.18 13.82L7.18 20.62ZM16.54 20.81Q11.28 20.81 11.28 15.36L11.28 15.36L11.28 8.30Q11.28 5.81 12.68 4.33Q14.09 2.86 16.54 2.86L16.54 2.86Q18.98 2.86 20.39 4.33Q21.79 5.81 21.79 8.30L21.79 8.30L21.79 15.36Q21.79 20.81 16.54 20.81L16.54 20.81ZM16.54 17.57Q17.04 17.57 17.28 17.21Q17.52 16.85 17.52 16.22L17.52 16.22L17.52 7.63Q17.52 6.10 16.54 6.10L16.54 6.10Q15.55 6.10 15.55 7.63L15.55 7.63L15.55 16.22Q15.55 16.85 15.79 17.21Q16.03 17.57 16.54 17.57L16.54 17.57ZM26.74 20.81Q24.77 20.81 24.04 19.63Q23.30 18.46 23.30 16.13L23.30 16.13L23.30 3.05L27.53 3.05L27.53 15.29Q27.53 15.46 27.53 16.19Q27.53 16.92 27.76 17.22Q27.98 17.52 28.46 17.52L28.46 17.52Q29.11 17.52 29.28 16.98Q29.45 16.44 29.45 15.43L29.45 15.43L29.45 15.29L29.47 3.05L33.65 3.05L33.65 20.62L29.45 20.62L29.45 18.74Q29.02 19.85 28.44 20.33Q27.86 20.81 26.74 20.81L26.74 20.81ZM35.33 20.62L35.33 3.05L39.53 3.05L39.53 4.99Q39.84 3.96 40.62 3.40Q41.40 2.83 42.55 2.83L42.55 2.83L42.55 6.34Q41.66 6.34 40.60 6.59Q39.53 6.84 39.53 7.18L39.53 7.18L39.53 20.62L35.33 20.62ZM57.65 20.62L49.27 20.62L49.27 0L53.40 0L53.40 17.11L57.65 17.11L57.65 20.62ZM63.84 20.81Q58.58 20.81 58.58 15.36L58.58 15.36L58.58 8.30Q58.58 5.81 59.99 4.33Q61.39 2.86 63.84 2.86L63.84 2.86Q66.29 2.86 67.69 4.33Q69.10 5.81 69.10 8.30L69.10 8.30L69.10 15.36Q69.10 20.81 63.84 20.81L63.84 20.81ZM63.84 17.57Q64.34 17.57 64.58 17.21Q64.82 16.85 64.82 16.22L64.82 16.22L64.82 7.63Q64.82 6.10 63.84 6.10L63.84 6.10Q62.86 6.10 62.86 7.63L62.86 7.63L62.86 16.22Q62.86 16.85 63.10 17.21Q63.34 17.57 63.84 17.57L63.84 17.57ZM75.38 23.18Q73.51 23.18 72.44 22.88Q71.38 22.58 70.34 21.74L70.34 21.74L71.78 19.32Q73.32 20.23 74.83 20.23L74.83 20.23Q75.82 20.23 76.32 19.61Q76.82 18.98 76.82 17.90L76.82 17.90L76.82 16.94Q76.32 18.74 74.16 18.74L74.16 18.74Q72.36 18.74 71.51 17.52Q70.66 16.30 70.66 14.26L70.66 14.26L70.66 7.66Q70.66 5.33 71.44 4.09Q72.22 2.86 74.16 2.86L74.16 2.86Q75.29 2.86 75.95 3.42Q76.61 3.98 76.82 5.02L76.82 5.02L76.82 3.05L81.12 3.05L81.12 17.64Q81.12 20.59 79.75 21.89Q78.38 23.18 75.38 23.18L75.38 23.18ZM75.84 15.58Q76.82 15.58 76.82 13.80L76.82 13.80L76.82 7.54Q76.82 7.01 76.54 6.53Q76.25 6.05 75.82 6.05L75.82 6.05Q75.26 6.05 75.07 6.44Q74.88 6.84 74.88 7.54L74.88 7.54L74.88 13.80Q74.88 14.59 75.07 15.08Q75.26 15.58 75.84 15.58L75.84 15.58ZM87.86 20.81Q82.61 20.81 82.61 15.36L82.61 15.36L82.61 8.30Q82.61 5.81 84.01 4.33Q85.42 2.86 87.86 2.86L87.86 2.86Q90.31 2.86 91.72 4.33Q93.12 5.81 93.12 8.30L93.12 8.30L93.12 15.36Q93.12 20.81 87.86 20.81L87.86 20.81ZM87.86 17.57Q88.37 17.57 88.61 17.21Q88.85 16.85 88.85 16.22L88.85 16.22L88.85 7.63Q88.85 6.10 87.86 6.10L87.86 6.10Q86.88 6.10 86.88 7.63L86.88 7.63L86.88 16.22Q86.88 16.85 87.12 17.21Q87.36 17.57 87.86 17.57L87.86 17.57Z" transform="translate(51, 4.192)"></path></svg>